<svg xmlns="http://www.w3.org/2000/svg" width="113.087" height="113.087" viewBox="0 0 113.087 113.087">
  <g id="Icon_ionic-ios-checkmark-circle-outline" data-name="Icon ionic-ios-checkmark-circle-outline" transform="translate(-3.375 -3.375)">
    <path id="Path_1591" data-name="Path 1591" d="M68.663,17.453l-4.784-4.92a1.029,1.029,0,0,0-.761-.326h0a.987.987,0,0,0-.761.326L29.192,45.942l-12.07-12.07a1.051,1.051,0,0,0-1.522,0l-4.839,4.839a1.083,1.083,0,0,0,0,1.55L25.984,55.484a4.814,4.814,0,0,0,3.181,1.55,5.045,5.045,0,0,0,3.153-1.5h.027L68.69,19A1.162,1.162,0,0,0,68.663,17.453Z" transform="translate(20.234 25.312)" fill="#ced4da"/>
    <path id="Path_1592" data-name="Path 1592" d="M59.918,10.987A48.94,48.94,0,0,1,94.524,94.524,48.94,48.94,0,0,1,25.313,25.313,48.608,48.608,0,0,1,59.918,10.987m0-7.612a56.543,56.543,0,1,0,56.543,56.543A56.535,56.535,0,0,0,59.918,3.375Z" transform="translate(0 0)" fill="#ced4da"/>
  </g>
</svg>
